HIERARCHY
ROOT Hips
{
	OFFSET 0.000000 0.000000 0.000000
	CHANNELS 6 Xposition Yposition Zposition Zrotation Yrotation Xrotation 
	JOINT LHipJoint
	{
		OFFSET 0.000000 0.000000 0.000000
		CHANNELS 3 Zrotation Yrotation Xrotation
		JOINT LeftUpLeg
		{
			OFFSET 1.363060 -1.794630 0.839290
			CHANNELS 3 Zrotation Yrotation Xrotation
			JOINT LeftLeg
			{
				OFFSET 2.448110 -6.726130 0.000000
				CHANNELS 3 Zrotation Yrotation Xrotation
				JOINT LeftFoot
				{
					OFFSET 2.562200 -7.039590 0.000000
					CHANNELS 3 Zrotation Yrotation Xrotation
					JOINT LeftToeBase
					{
						OFFSET 0.157640 -0.433110 2.322550
						CHANNELS 3 Zrotation Yrotation Xrotation
						End Site
						{
							OFFSET 0.000000 0.000000 0.000000
						}
					}
				}
			}
		}
	}
	JOINT RHipJoint
	{
		OFFSET 0.000000 0.000000 0.000000
		CHANNELS 3 Zrotation Yrotation Xrotation
		JOINT RightUpLeg
		{
			OFFSET -1.305520 -1.794630 0.839290
			CHANNELS 3 Zrotation Yrotation Xrotation
			JOINT RightLeg
			{
				OFFSET -2.542530 -6.985550 0.000000
				CHANNELS 3 Zrotation Yrotation Xrotation
				JOINT RightFoot
				{
					OFFSET -2.568260 -7.056230 0.000000
					CHANNELS 3 Zrotation Yrotation Xrotation
					JOINT RightToeBase
					{
						OFFSET -0.164730 -0.452590 2.363150
						CHANNELS 3 Zrotation Yrotation Xrotation
						End Site
						{
							OFFSET 0.000000 0.000000 0.000000
						}
					}
				}
			}
		}
	}
	JOINT LowerBack
	{
		OFFSET 0.000000 0.000000 0.000000
		CHANNELS 3 Zrotation Yrotation Xrotation
		JOINT Spine
		{
			OFFSET 0.028270 2.035590 -0.193380
			CHANNELS 3 Zrotation Yrotation Xrotation
			JOINT Spine1
			{
				OFFSET 0.056720 2.048850 -0.042750
				CHANNELS 3 Zrotation Yrotation Xrotation
				JOINT Neck
				{
					OFFSET 0.000000 0.000000 0.000000
					CHANNELS 3 Zrotation Yrotation Xrotation
					JOINT Neck1
					{
						OFFSET -0.054170 1.746240 0.172020
						CHANNELS 3 Zrotation Yrotation Xrotation
						JOINT Head
						{
							OFFSET 0.104070 1.761360 -0.123970
							CHANNELS 3 Zrotation Yrotation Xrotation
							End Site
							{
								OFFSET 0.000000 0.000000 0.000000
							}
						}
					}
				}
				JOINT LeftShoulder
				{
					OFFSET 0.000000 0.000000 0.000000
					CHANNELS 3 Zrotation Yrotation Xrotation
					JOINT LeftArm
					{
						OFFSET 3.362410 1.200890 -0.311210
						CHANNELS 3 Zrotation Yrotation Xrotation
						JOINT LeftForeArm
						{
							OFFSET 4.983000 -0.000000 -0.000000
							CHANNELS 3 Zrotation Yrotation Xrotation
							JOINT LeftHand
							{
								OFFSET 3.483560 -0.000000 -0.000000
								CHANNELS 3 Zrotation Yrotation Xrotation
								JOINT LeftFingerBase
								{
									OFFSET 0.000000 0.000000 0.000000
									CHANNELS 3 Zrotation Yrotation Xrotation
									JOINT LeftHandIndex1
									{
										OFFSET 0.715260 -0.000000 -0.000000
										CHANNELS 3 Zrotation Yrotation Xrotation
										End Site
										{
											OFFSET 0.000000 0.000000 0.000000
										}
									}
								}
								JOINT LThumb
								{
									OFFSET 0.000000 0.000000 0.000000
									CHANNELS 3 Zrotation Yrotation Xrotation
									End Site
									{
										OFFSET 0.000000 0.000000 0.000000
									}
								}
							}
						}
					}
				}
				JOINT RightShoulder
				{
					OFFSET 0.000000 0.000000 0.000000
					CHANNELS 3 Zrotation Yrotation Xrotation
					JOINT RightArm
					{
						OFFSET -3.136600 1.374050 -0.404650
						CHANNELS 3 Zrotation Yrotation Xrotation
						JOINT RightForeArm
						{
							OFFSET -5.241900 -0.000000 -0.000000
							CHANNELS 3 Zrotation Yrotation Xrotation
							JOINT RightHand
							{
								OFFSET -3.444170 -0.000000 -0.000000
								CHANNELS 3 Zrotation Yrotation Xrotation
								JOINT RightFingerBase
								{
									OFFSET 0.000000 0.000000 0.000000
									CHANNELS 3 Zrotation Yrotation Xrotation
									JOINT RightHandIndex1
									{
										OFFSET -0.622530 -0.000000 -0.000000
										CHANNELS 3 Zrotation Yrotation Xrotation
										End Site
										{
											OFFSET 0.000000 0.000000 0.000000
										}
									}
								}
								JOINT RThumb
								{
									OFFSET 0.000000 0.000000 0.000000
									CHANNELS 3 Zrotation Yrotation Xrotation
									End Site
									{
										OFFSET 0.000000 0.000000 0.000000
									}
								}
							}
						}
					}
				}
			}
		}
	}
}
MOTION
Frames: 10
Frame Time: 0.008333
-4.236599 15.350298 48.156325 6.465015 18.423190 7.871673 -1.174201 6.074069 10.025108 -5.984344 4.455079 4.367817 -0.593054 5.433303 20.396674 -14.411852 30.751431 -6.539518 1.751300 -8.327700 -23.713900 -8.165789 0.768123 -9.015047 4.415278 -11.230684 -49.975751 -7.656580 -20.745417 52.537498 -5.322359 10.988697 23.848281 -0.000200 -0.095200 0.261700 -11.502194 -8.056186 13.792172 1.834084 -11.913858 -3.082590 11.567335 -5.188294 -9.681177 -17.390315 -19.352268 6.664235 9.712961 -29.679764 6.806789 8.582200 -14.904400 4.568800 -0.768727 -10.134782 1.440576 -76.173449 -2.846139 32.823258 10.966394 -19.769720 -3.896083 -3.434980 -1.421087 18.264424 19.695056 19.164035 8.581100 -7.125000 0.000000 0.000000 -6.413600 52.804400 -1.235700 -4.073491 7.272175 2.333454 66.346547 0.276134 44.066292 -15.224161 25.134866 -6.220971 2.317377 5.128552 8.255307 -5.306188 -37.955314 4.681000 7.125000 0.000000 0.000000 43.835300 -68.707200 -26.754500 
-4.229994 15.352804 48.155300 6.446456 18.441456 7.886882 -1.181420 6.074310 10.025929 -5.979251 4.440148 4.354370 -0.593023 5.433895 20.384467 -14.432271 30.788159 -6.514525 1.758600 -8.344100 -23.764100 -8.166109 0.769683 -9.014841 4.407079 -11.231373 -49.958154 -7.642743 -20.736196 52.502766 -5.320423 10.981145 23.927385 -0.000900 -0.189200 0.519700 -11.488949 -8.091563 13.799737 1.842432 -11.955840 -3.081883 11.613772 -5.212571 -9.648357 -17.383060 -19.341088 6.622076 9.726046 -29.675091 6.805380 8.588400 -14.898900 4.569100 -0.770389 -10.157275 1.448190 -76.081573 -3.067315 32.890022 11.055259 -19.847726 -3.941285 -3.452848 -1.423723 18.138843 19.820560 19.249148 8.673400 -7.125000 0.000000 0.000000 -6.291000 52.917000 -1.229300 -4.050416 7.278892 2.338014 66.319780 0.341409 44.039507 -15.031530 24.932630 -6.126431 2.321624 5.140101 8.286660 -5.216502 -37.983017 4.621800 7.125000 0.000000 0.000000 44.003100 -68.707000 -26.871200 
-4.222477 15.355879 48.152453 6.398229 18.438593 7.867138 -1.180150 6.068537 10.024130 -5.971611 4.424801 4.341826 -0.589035 5.449693 20.443038 -14.414394 30.754557 -6.598655 1.744800 -8.312900 -23.668500 -8.156381 0.777557 -9.009555 4.437604 -11.238299 -49.938825 -7.624495 -20.720959 52.448159 -5.311329 10.918612 23.913170 0.000000 0.012200 -0.033400 -11.418199 -8.098107 13.838317 1.845107 -11.956020 -3.084062 11.617292 -5.212518 -9.685654 -17.374614 -19.350290 6.644817 9.724938 -29.689681 6.797218 8.585200 -14.905400 4.554500 -0.764383 -10.181201 1.453892 -76.002958 -3.248409 33.026071 11.172776 -19.952583 -4.005151 -3.488912 -1.486949 18.218156 19.671008 19.741299 8.826100 -7.125000 0.000000 0.000000 -6.618300 53.476700 -1.384400 -4.027886 7.298654 2.341060 66.311984 0.319574 43.923391 -14.852612 24.745926 -6.036068 2.333669 5.133317 8.358261 -5.217508 -37.898498 4.619100 7.125000 0.000000 0.000000 43.830000 -68.648700 -26.696400 
-4.220313 15.356107 48.154730 6.382094 18.397151 7.930509 -1.198944 6.047912 10.015671 -5.972049 4.473287 4.254137 -0.581128 5.462240 20.473865 -14.426632 30.773552 -6.604647 1.752100 -8.329400 -23.719000 -8.150547 0.797953 -9.024029 4.421244 -11.147829 -49.960532 -7.604296 -20.722657 52.402322 -5.288568 10.853628 23.994853 0.000000 0.032900 -0.090400 -11.474791 -8.117035 13.784704 1.855692 -11.983890 -3.083598 11.693570 -5.232990 -9.590026 -17.301362 -19.350212 6.507776 9.720372 -29.672460 6.809725 8.548100 -14.891500 4.555300 -0.765977 -10.207037 1.456850 -75.883995 -3.485803 33.047969 11.234201 -20.005026 -4.023806 -3.464070 -1.400696 17.890817 20.086156 19.187420 8.759000 -7.125000 0.000000 0.000000 -5.961000 52.868700 -1.157400 -3.991987 7.314006 2.344873 66.292830 0.583369 43.876768 -14.608370 24.458642 -5.911424 2.344065 5.138235 8.391139 -5.125856 -37.866053 4.557500 7.125000 0.000000 0.000000 43.868600 -68.604500 -26.682000 
-4.220882 15.363510 48.156667 6.043052 18.358297 7.964851 -1.202353 6.059376 10.004318 -5.681508 4.557431 4.036933 -0.550185 5.456689 20.486789 -14.447618 30.764167 -6.500714 1.740700 -8.303800 -23.640700 -8.089335 0.846231 -9.009840 4.699434 -11.009543 -50.046430 -7.566983 -20.739821 52.366024 -5.215985 10.611604 23.926151 -0.000400 -0.122400 0.336200 -11.177468 -8.111034 13.630114 1.872709 -11.921184 -3.087983 11.704340 -5.216099 -9.618860 -17.323992 -19.366292 6.563077 9.710390 -29.693802 6.823649 8.548400 -14.908500 4.560100 -0.750136 -10.231067 1.463654 -75.837130 -3.646875 33.189869 11.304491 -20.062132 -4.056454 -3.479745 -1.394286 17.847289 20.211043 19.253699 8.841700 -7.125000 0.000000 0.000000 -5.833300 52.956200 -1.145000 -3.966767 7.308424 2.341635 66.287649 0.485946 43.746711 -14.481014 24.336285 -5.851424 2.352045 5.134974 8.455620 -5.141191 -37.830425 4.566600 7.125000 0.000000 0.000000 43.783200 -68.585200 -26.604800 
-4.212796 15.363738 48.154503 6.170738 18.369662 8.005297 -1.213154 6.036661 10.004900 -5.820113 4.527520 4.059045 -0.564607 5.470982 20.505989 -14.432298 30.753096 -6.575931 1.747900 -8.319900 -23.690100 -8.113018 0.837349 -9.023312 4.579621 -11.049817 -50.036205 -7.574381 -20.725563 52.339981 -5.224413 10.618828 23.932361 -0.000500 0.144200 -0.396300 -11.284546 -8.125647 13.660224 1.868353 -11.960732 -3.091417 11.718371 -5.229192 -9.620298 -17.319070 -19.375438 6.550763 9.718818 -29.715257 6.827293 8.547400 -14.919400 4.570200 -0.752944 -10.241323 1.469762 -75.740062 -3.843688 33.298734 11.398219 -20.138988 -4.099270 -3.487749 -1.412265 17.540056 20.264505 19.287615 8.884100 -7.125000 0.000000 0.000000 -5.774700 53.005800 -1.140400 -3.964613 7.315420 2.339324 66.274162 0.359990 43.701389 -14.431767 24.298398 -5.822803 2.366317 5.117941 8.472286 -5.320604 -37.720907 4.690100 7.125000 0.000000 0.000000 43.354100 -68.559000 -26.283800 
-4.206190 15.359979 48.156553 6.332135 18.333649 7.998464 -1.219960 6.027210 10.015130 -5.984737 4.546363 4.168377 -0.585439 5.464263 20.498779 -14.367408 30.656043 -6.659837 1.728100 -8.275200 -23.553000 -8.133105 0.826491 -9.035853 4.398356 -11.023937 -49.959106 -7.578618 -20.718451 52.317567 -5.248644 10.686418 23.962547 -0.000200 0.084800 -0.232900 -11.486959 -8.127336 13.726445 1.866172 -11.998199 -3.092104 11.793200 -5.238434 -9.594406 -17.329322 -19.378789 6.498399 9.708033 -29.713435 6.852578 8.522700 -14.921700 4.589500 -0.756026 -10.250747 1.468253 -75.675510 -4.012825 33.318517 11.478547 -20.211718 -4.139512 -3.493220 -1.421635 17.449753 20.280981 19.349529 8.919200 -7.125000 0.000000 0.000000 -5.772500 53.079200 -1.150400 -3.951008 7.323592 2.340605 66.214892 0.375379 43.762675 -14.327554 24.184932 -5.768352 2.370373 5.122105 8.439040 -5.343414 -37.693936 4.708000 7.125000 0.000000 0.000000 43.281000 -68.551600 -26.226600 
-4.205393 15.362599 48.162133 6.178079 18.297636 7.997112 -1.221974 6.054928 10.021213 -5.842961 4.623807 4.128663 -0.580219 5.423861 20.398009 -14.395557 30.685853 -6.523795 1.731000 -8.281800 -23.573200 -8.100113 0.846079 -9.031844 4.500363 -10.918066 -49.971412 -7.565066 -20.737771 52.311791 -5.204256 10.547977 23.967476 -0.002000 0.288300 -0.792000 -11.380397 -8.103596 13.634770 1.870440 -11.940669 -3.089159 11.801446 -5.220635 -9.594684 -17.351942 -19.390089 6.545223 9.711683 -29.743865 6.858533 8.535700 -14.940100 4.595200 -0.745532 -10.260442 1.475497 -75.629257 -4.124735 33.494400 11.590406 -20.319878 -4.191110 -3.507609 -1.426046 17.318346 20.433363 19.434046 9.023200 -7.125000 0.000000 0.000000 -5.624200 53.196600 -1.136800 -3.942209 7.305935 2.338325 66.218787 0.244075 43.655366 -14.242110 24.118426 -5.733360 2.350934 5.136189 8.489639 -5.138355 -37.718400 4.552700 7.125000 0.000000 0.000000 43.584600 -68.507200 -26.394900 
-4.197306 15.373533 48.164184 6.190841 18.314430 8.030056 -1.232636 6.075558 10.020133 -5.802590 4.867959 4.041457 -0.569012 5.389548 20.307573 -14.366456 30.620376 -6.269160 1.765200 -8.358900 -23.809500 -8.095728 0.835218 -9.024175 4.479734 -10.943827 -49.929641 -7.544245 -20.720841 52.246653 -5.217471 10.557709 23.967850 -0.002800 0.340800 -0.936500 -11.366149 -8.110773 13.614028 1.869374 -11.947496 -3.091148 11.795637 -5.225269 -9.603377 -17.359189 -19.397920 6.549242 9.716625 -29.761076 6.856229 8.540300 -14.948800 4.601000 -0.743292 -10.281488 1.477451 -75.577377 -4.267644 33.538188 11.704043 -20.414461 -4.233784 -3.483194 -1.438626 17.138116 20.331692 19.345761 8.937600 -7.125000 0.000000 0.000000 -5.720000 53.081600 -1.140200 -3.934318 7.317381 2.341558 66.191867 0.270348 43.589770 -14.126534 23.998293 -5.681074 2.360966 5.137520 8.508171 -5.146782 -37.712807 4.563500 7.125000 0.000000 0.000000 43.563600 -68.510300 -26.383300 
-4.188878 15.372394 48.165095 6.403317 18.336248 8.064762 -1.243747 6.062870 10.027630 -5.979370 4.915778 4.096451 -0.587567 5.385891 20.283515 -14.313095 30.542935 -6.261856 1.767000 -8.363000 -23.822100 -8.131697 0.807845 -9.031768 4.275075 -10.999181 -49.867343 -7.557582 -20.703760 52.231214 -5.255063 10.668473 24.015808 -0.001600 0.254700 -0.699900 -11.575371 -8.130585 13.683160 1.865935 -12.019545 -3.100990 11.868916 -5.234921 -9.648668 -17.433385 -19.382125 6.579870 9.727764 -29.760437 6.863699 8.557600 -14.952800 4.616400 -0.735745 -10.281248 1.468892 -75.586132 -4.323444 33.482795 11.841742 -20.548518 -4.300912 -3.481111 -1.449690 17.155591 20.334017 19.448938 8.980100 -7.125000 0.000000 0.000000 -5.759700 53.199700 -1.164800 -3.942249 7.321502 2.339727 66.176010 0.154064 43.550459 -14.089822 23.966961 -5.661805 2.348899 5.140125 8.583226 -5.017966 -37.677005 4.459400 7.125000 0.000000 0.000000 43.652500 -68.442800 -26.381800 
